<svg xmlns="http://www.w3.org/2000/svg" width="160" height="160" viewBox="0 0 160 160" fill="none">
  <g stroke="#c5a059" stroke-width="1.35" stroke-linecap="round" stroke-linejoin="round" opacity="0.055">
    <!-- Graduation cap -->
    <g transform="translate(18 16) rotate(-10 16 16)">
      <path d="M16 4L2 10l14 6 14-6-14-6z" />
      <path d="M6 12v6c0 2.2 4.5 4 10 4s10-1.8 10-4v-6" />
      <path d="M30 10v8" />
      <circle cx="30" cy="20" r="1.5" fill="#c5a059" stroke="none" />
    </g>

    <!-- Open book -->
    <g transform="translate(92 14) rotate(8 16 14)">
      <path d="M2 4c4-1 8-1 14 0v20c-6-1.2-10-1.2-14 0V4z" />
      <path d="M16 4c4-1 8-1 14 0v20c-4-1.2-8-1.2-14 0V4z" />
      <path d="M16 4v20" />
    </g>

    <!-- Scroll / diploma -->
    <g transform="translate(14 94) rotate(-6 18 12)">
      <path d="M4 6c0-2 4-3 8-3h8c4 0 8 1 8 3v12c0 2-4 3-8 3h-8c-4 0-8-1-8-3V6z" />
      <path d="M4 6c-1.5 1-1.5 3 0 4" />
      <path d="M28 6c1.5 1 1.5 3 0 4" />
      <path d="M4 18c-1.5-1-1.5-3 0-4" />
      <path d="M28 18c1.5-1 1.5-3 0-4" />
      <path d="M10 10h12M10 14h8" />
    </g>

    <!-- Pencil -->
    <g transform="translate(98 96) rotate(14 10 12)">
      <path d="M4 20L16 4l4 4L8 24l-4-4z" />
      <path d="M16 4l2 2" />
      <path d="M4 20l-2 2" />
      <path d="M2 22l2-2" />
    </g>
  </g>
</svg>
